<?xml version="1.0" encoding="UTF-8" standalone="no"?>
<!DOCTYPE svg PUBLIC "-//W3C//DTD SVG 1.1//EN" "http://www.w3.org/Graphics/SVG/1.1/DTD/svg11.dtd">
<svg xmlns="http://www.w3.org/2000/svg">
<metadata/>
<defs>
<font id="venedorregular" horiz-adv-x="2048">
<font-face units-per-em="2048" ascent="1638" descent="-410"/>
<missing-glyph horiz-adv-x="1024"/>
<glyph horiz-adv-x="0"/>
<glyph unicode="" horiz-adv-x="1024"/>
<glyph horiz-adv-x="0"/>
<glyph horiz-adv-x="0"/>
<glyph unicode=" " horiz-adv-x="1024"/>
<glyph unicode="	" horiz-adv-x="1024"/>
<glyph unicode=" " horiz-adv-x="1024"/>
<glyph unicode="A" horiz-adv-x="2043" d="M0 1397l240 241l1794 -1806l-240 -242zM6 -168l1798 1800l240 -239l-1798 -1803z"/>
<glyph unicode="B" horiz-adv-x="1431" d="M0 29l903 794l-903 793l266 231l1166 -1024l-1166 -1024z"/>
<glyph unicode="C" horiz-adv-x="2242" d="M0 838l778 116l326 684l354 -671l785 -82l-560 -531l160 -735l-702 344l-684 -373l127 742z"/>
<glyph unicode="D" horiz-adv-x="2623" d="M0 573l410 410l575 -573l1229 1228l409 -409l-1638 -1639z"/>
<glyph unicode="E" horiz-adv-x="2377" d="M0 1034q0 31 4 62.5t10 60.5q12 56 33 100q0 -2 0.5 0t1.5 7q10 23 20 41t23 38q107 162 301 236q33 12 59.5 20.5t45.5 10.5q18 2 36.5 3t38.5 1q6 0 12.5 1t12.5 1q4 0 10 -1t10 -1q16 0 35.5 -2t42.5 -6q22 0 35 -7q16 -4 34.5 -8.5t37.5 -11.5q67 -25 122.5 -61 t104.5 -84q32 -32 61 -50.5t52 -29.5q43 -22 74 -22h3q32 0 55 20t48 49q28 31 92 86q32 28 71 50.5t85 45.5q19 10 51 21q8 4 15.5 5t15.5 5q20 4 39.5 8t42.5 8q6 0 8 2q16 2 34.5 4t34.5 2q115 0 214 -38t172 -111l6 -6q10 -10 20 -21.5t21 -21.5q121 -133 129 -320 q0 -8 2 -15t2 -15t-2 -14.5t-2 -12.5q0 -8 -1 -14.5t-1 -12.5q-22 -204 -164 -340q-75 -97 -174 -209.5t-219 -248.5q-57 -64 -113.5 -122t-113.5 -118q-113 -119 -208 -208q-48 -46 -87.5 -82t-72.5 -64q-63 -54 -80 -54h-1q-17 8 -54.5 41t-97.5 93q-49 49 -121.5 125.5 t-174.5 188t-235.5 261.5t-305.5 346q-4 4 -5 8.5t-6 10.5q-67 78 -103 171t-36 199z"/>
<glyph unicode="F" horiz-adv-x="1902" d="M51 166q18 -4 41 -4h47q263 0 459 157q-122 0 -215 72q-94 73 -131 184q39 -6 70 -6q68 0 98 13q-126 25 -213 127q-84 100 -84 235v4q76 -42 168 -47q-76 51 -121 130.5t-45 176.5q0 95 51 187q72 -88 154 -153.5t182 -119.5q189 -100 426 -112q-10 24 -10 84 q0 153 108 260q108 108 257 108h3q160 0 271 -116q124 26 233 90q-39 -131 -162 -203q52 4 105 18t108 37q-78 -111 -184 -190v-47q0 -154 -42.5 -297t-133.5 -285q-45 -69 -97 -127.5t-112 -112.5t-133.5 -95t-161.5 -73t-179.5 -46.5t-191.5 -14.5q-312 0 -565 166z"/>
<glyph unicode="G" d="M0 -410v875h875v-875h-875zM0 763v875h875v-875h-875zM288 -126v303h304v-303h-304zM288 1046v304h304v-304h-304zM1173 -410v875h875v-875h-875zM1173 763v875h875v-875h-875zM1461 -126v303h304v-303h-304zM1461 1046v304h304v-304h-304z"/>
<glyph unicode="H" d="M0 -405v873h873v-873h-873zM0 765v873h873v-873h-873zM287 -123v303h303v-303h-303zM287 1048v303h303v-303h-303zM1170 -117h878v-293h-878v293zM1170 175v293h878v-293h-878zM1170 760v293h878v-293h-878zM1170 1345v293h878v-293h-878z"/>
<glyph unicode="I" d="M138 133v291h434v-291h-434zM138 133v291h434v-291h-434zM774 145v701h481v-701h-481zM774 145v701h481v-701h-481zM1445 151v1205h481v-1205h-481z"/>
<glyph unicode="J" horiz-adv-x="2211" d="M0 1322v316h474v-316h-474zM311 1322l168 -1100h1258l474 1100h-1900zM474 -173q0 49 18.5 92t51 75.5t75.5 51t92 18.5t92 -18.5t75 -51t50.5 -75.5t18.5 -92t-18.5 -92t-50.5 -75.5t-75 -51t-92 -18.5t-92 18.5t-75.5 51t-51 75.5t-18.5 92zM1263 -173q0 49 18.5 92 t51 75.5t75.5 51t92 18.5t92 -18.5t75.5 -51t51 -75.5t18.5 -92t-18.5 -92t-51 -75.5t-75.5 -51t-92 -18.5t-92 18.5t-75.5 51t-51 75.5t-18.5 92z"/>
<glyph unicode="K" horiz-adv-x="2929" d="M26 531q-26 42 -26 83.5t26 82.5q3 5 28.5 40t70 90.5t107 127t139.5 149t167 156.5t190 150q322 228 736 228q209 0 391 -57t345 -171q100 -70 189.5 -149t166.5 -157.5t139 -150.5t106.5 -128t70.5 -90.5t30 -37.5q27 -38 27 -81q0 -46 -27 -85q-3 -4 -28.5 -39 t-70 -91t-107 -128t-139.5 -150t-167 -157t-190 -149q-323 -227 -736 -227t-736 227q-100 70 -190 149t-167 156.5t-139.5 149.5t-107.5 128t-70 91t-28 40zM952 614q0 -106 40 -199t109.5 -162.5t162.5 -110t200 -40.5q106 0 199.5 40.5t163 110t110 162.5t40.5 199 t-40.5 199.5t-110 163t-163 109.5t-199.5 40q-107 0 -200 -40t-162.5 -109.5t-109.5 -163t-40 -199.5zM1171 614q0 -60 23 -113.5t62.5 -93.5t93 -63t114.5 -23q60 0 113.5 23t93.5 63t63 93.5t23 113.5q0 61 -23 114t-63 93t-93.5 63t-113.5 23q-61 0 -114.5 -23t-93 -63 t-62.5 -93t-23 -114z"/>
<glyph unicode="L" horiz-adv-x="1791" d="M0 -196q0 84 18 156q19 76 55 137.5t84 110.5t105 86t119 65q109 49 235 76t280 34q154 -7 280 -33.5t235 -76.5q61 -28 118.5 -65t105.5 -86t84 -110.5t55 -137.5q18 -71 18 -155v-13q0 -42 -7.5 -92t-21.5 -110h-1734q-29 127 -29 201v13zM470 1208q0 81 18.5 142 t49 106.5t69 76.5t79.5 51q48 23 102 37t115 17q121 -6 217 -54q40 -20 79 -51t69.5 -76.5t49.5 -106.5t19 -142q0 -121 -18.5 -213t-49.5 -160t-70 -115t-79 -77q-96 -71 -217 -81q-122 10 -217 81q-41 30 -80 77t-69 115t-48.5 160.5t-18.5 212.5z"/>
<glyph unicode="M" horiz-adv-x="2779" d="M0 -77v1391l694 -695zM0 1645h2772l-1383 -1380zM70 -403l795 851l524 -567l520 573l794 -857h-2633zM2084 619l695 689v-1374z"/>
<glyph unicode="N" horiz-adv-x="1755" d="M0 -197v1827q0 24 9 44.5t24 35t35 23t43 8.5h913v-623q0 -22 9 -41.5t24 -34.5t35 -23.5t43 -8.5h620v-1207q0 -48 -30 -79t-78 -31h-1536q-24 0 -44.5 9t-35 24t-23 35t-8.5 42zM1169 1155v541q14 -8 24.5 -16.5t18.5 -16.5l465 -467q8 -8 16.5 -17.5t16.5 -23.5h-541z "/>
<glyph unicode="O" horiz-adv-x="2521" d="M0 -410v1260h473v-787h1575v787h473v-787v-473h-473h-1575h-315h-158zM788 1165l472 473l473 -473h-158v-630h-630v630h-157zM945 220v158h630v-158h-630z"/>
<glyph unicode="P" d="M0 315v951q0 135 96 231q98 98 234 98h950q76 0 133 -28q19 -9 21.5 -27.5t-11.5 -32.5l-55 -57q-16 -16 -37 -8q-27 6 -51 6h-950q-38 0 -71.5 -14.5t-59 -39t-40 -58t-14.5 -70.5v-951q0 -38 15 -71t40.5 -58.5t59 -40t70.5 -14.5h950q37 0 70.5 15t58 40.5t39 58.5 t14.5 70v144q0 8 3 13.5t8 10.5l73 74q9 9 20 10.5t20.5 -2t16.5 -12.5t7 -21v-217q0 -136 -97 -233q-96 -96 -233 -96h-950q-138 0 -234 96t-96 233zM731 279v327l768 768l330 -327l-768 -768h-330zM842 498h108v-111h66l131 133l-174 174l-131 -133v-63zM1079 772 q10 -9 19 -9t18 9l402 402q9 9 7.5 19t-8 17t-17 8t-19.5 -8l-402 -401q-10 -10 -10 -19t10 -18zM1573 1448l104 104q16 16 36.5 24t41.5 8t41.5 -8t36.5 -24l174 -172q16 -16 23.5 -36t7.5 -41t-8 -41.5t-23 -36.5l-104 -107z"/>
<glyph unicode="R" horiz-adv-x="2044" d="M0 1234q0 11 0.5 21.5t1.5 20.5q4 42 15 76t28 63l-5 4l223 219l556 -547l-222 -219l-93 91q1 -35 19.5 -89.5t57.5 -123t99.5 -148t145.5 -162.5q106 -103 203 -168t175 -101q46 -22 88 -38t84 -27l-111 109l222 219l557 -547l-223 -219q-53 -53 -135 -70q-20 -4 -39 -6 t-37 -2h-12h-18t-19 2l-51 8q-98 15 -209.5 65t-231.5 128t-244 180.5t-247 223.5q-115 113 -209.5 231.5t-165.5 234.5t-118.5 226.5t-68.5 208.5q-8 35 -12 69.5t-4 66.5z"/>
<glyph unicode="S" horiz-adv-x="1331" d="M0 -154v1536q0 53 21 99.5t57 81.5t84.5 55t103.5 20h799q55 0 103.5 -20t84.5 -55t57 -81.5t21 -99.5v-1536q0 -53 -21 -99.5t-57 -81.5t-84.5 -55t-103.5 -20h-799q-55 0 -103.5 20t-84.5 55t-57 81.5t-21 99.5zM133 102h1065v1152h-1065v-1152zM399 1382h533v128h-533 v-128zM532 -154q0 -27 10.5 -50t28.5 -40.5t42.5 -27.5t52.5 -10q27 0 51.5 10t42.5 27.5t28.5 40.5t10.5 50t-10.5 50t-28.5 40.5t-42.5 27.5t-51.5 10q-28 0 -52.5 -10t-42.5 -27.5t-28.5 -40.5t-10.5 -50z"/>
<glyph unicode="T" horiz-adv-x="1921" d="M0 1075q0 262 180 447q185 188 445 188q149 0 258 -55q14 2 36.5 2h51.5q194 0 355.5 -68t299.5 -211t203 -307.5t65 -361.5q0 -20 -2.5 -53t-7.5 -81q37 -93 37 -210q0 -139 -45 -249t-139 -204t-201 -141t-240 -47q-60 0 -117 11t-114 34q-20 -2 -43 -3.5t-51 -1.5 q-385 0 -658 277q-272 278 -272 668q0 29 1.5 58t6.5 58q-49 101 -49 250zM549 502q0 -36 12.5 -71t34.5 -66t51 -57t62 -44q106 -57 260 -57q91 0 164 20t133 62q116 83 116 233q0 72 -25.5 126t-80.5 91q-32 22 -63 35.5t-60 24.5q-8 2 -60.5 14.5t-152.5 38.5 q-54 14 -89 31t-52 39q-19 18 -19 41t14.5 42t38.5 32.5t54.5 20.5t62.5 7h5q131 0 178 -111l26 -43q7 -11 27 -22.5t51 -11.5q21 0 39.5 8t32.5 22.5t22 33.5t8 40q0 42 -21 82.5t-69 79.5q-54 45 -124.5 64.5t-161.5 19.5q-85 0 -154.5 -18.5t-126.5 -53.5t-85 -88.5 t-28 -122.5q0 -87 47 -147t119 -90q42 -17 88.5 -32.5t100.5 -27.5q30 -7 63 -13.5t68 -17.5q52 -17 77 -46.5t25 -67.5q0 -31 -16 -54.5t-43 -39.5t-62.5 -24.5t-74.5 -8.5q-57 0 -98 15.5t-64 47.5q-17 32 -27.5 50.5t-15.5 23.5q-28 88 -105 88q-45 0 -73.5 -28 t-28.5 -70z"/>
<glyph unicode="U" horiz-adv-x="2374" d="M0 1052l305 292h432v-581h-439zM895 -264v1609h296v-1609q0 -30 -11.5 -57t-31.5 -46.5t-47 -31t-58 -11.5t-58 11.5t-47 31t-31.5 46.5t-11.5 57zM895 1496q0 30 11.5 56t31.5 45t47 30t58 11t58 -11t47 -30t31.5 -45t11.5 -56h-296zM1340 176h519l244 197l-251 243 l-512 -3v-437zM1340 764h735l299 290l-306 290l-728 1v-581z"/>
<glyph unicode="V" horiz-adv-x="1707" d="M0 -255v1834q0 12 24.5 22.5t57 19t63 13t42.5 4.5q20 0 40.5 -2t25.5 -1q11 1 23.5 1.5t27.5 0.5q37 0 88 -3q39 -2 92.5 -6.5t122.5 -12.5t155.5 -19t192.5 -26q9 -18 16.5 -39.5t13.5 -43.5t11 -43t10 -37q2 -8 1 -9.5t1.5 -1.5t11 -0.5t29.5 -6.5q20 -5 42 -8.5 t47 -4.5q13 -1 25.5 -1h26.5q14 -1 28 -0.5t28 1.5q58 2 120.5 9t123 18t116.5 25t101 29l-4 -820q-115 -28 -206.5 -43.5t-163.5 -21.5q-26 -2 -50 -3t-46 -1h-15t-14 1q-27 2 -50 3.5t-43 4.5q-92 15 -129 52l-1 115q-7 1 -14.5 1.5t-15.5 0.5q-15 0 -33 -1.5t-38 -5.5 q-50 -9 -110 -25.5t-122.5 -36.5t-123.5 -42.5t-112.5 -43.5t-90 -38.5t-56.5 -27.5q-6 -2 -10 -6q-4 -3 -8.5 -7t-7.5 -9v-758l-110 -155zM243 606v886q0 5 1 6q2 4 4 6q1 0 1 1l5 -3q4 -4 8 -18q42 -35 66 -92.5t34 -129.5q4 -28 5.5 -56.5t1.5 -59.5q0 -9 -0.5 -18.5 t-0.5 -19.5q-2 -61 -10.5 -125t-22.5 -127.5t-32.5 -125t-40.5 -116.5l-5 -6q-4 -4 -8 -4q-1 1 -2 1q-3 0 -4 1z"/>
<glyph unicode="W" horiz-adv-x="2050" d="M0 -256q0 -58 20.5 -89.5t46.5 -45.5q14 -8 31 -13.5t36 -5.5h1759q30 0 52 6.5t38.5 18t28 25.5t19.5 29q5 9 8 18t6 19q2 14 3.5 23t1.5 13v6l-11 631l-157 381l-518 -435l-240 437l-389 -426l-191 415l-544 -403v-604zM137 167h410v-440h-410v440zM680 1588 q0 21 13.5 35.5t33.5 14.5h176q20 0 33 -14.5t13 -35.5l1 -607q0 -3 -11.5 -18t-34.5 -32l-171 -166q-20 0 -33.5 14.5t-13.5 34.5zM820 167h409v-440h-409v440zM1364 703l2 441q0 21 13.5 35.5t32.5 14.5h171q20 0 33.5 -14.5t13.5 -35.5l3 -313q0 -15 -13 -25.5t-33 -24.5 l-177 -128q-19 0 -32.5 15t-13.5 35zM1502 167h409v-440h-409v440z"/>
<glyph unicode="X" d="M2 -125v1243q0 38 14.5 71.5t39 59t57.5 40t71 14.5h148q37 0 70.5 -15t58 -40.5t39 -59t14.5 -70.5v-1243q0 -38 -14.5 -71t-39 -57.5t-58 -39t-70.5 -14.5h-148q-37 0 -70 14.5t-58 39t-39.5 57.5t-14.5 71zM588 -125v1755q0 48 30 79.5t78 31.5h768q24 0 50 -6 t51.5 -16.5t48 -24.5t39.5 -31l174 -174q15 -15 29.5 -38t25 -48.5t17 -51.5t6.5 -48v-187q33 -19 60 -46t45.5 -60t29 -70.5t10.5 -77.5v-876q0 -121 -86 -207t-207 -86h-987q-38 0 -71 14.5t-57.5 39t-39 57.5t-14.5 71zM733 1010h1024v293h-182q-22 0 -42 8t-35.5 22.5 t-24.5 34t-9 43.5v184h-731v-585zM844 -14q0 -37 37 -37h145q37 0 37 37v145q0 37 -37 37h-145q-37 0 -37 -37v-145zM844 279q0 -37 37 -37h145q37 0 37 37v145q0 37 -37 37h-145q-37 0 -37 -37v-145zM844 571q0 -36 37 -36h145q37 0 37 36v146q0 37 -37 37h-145 q-37 0 -37 -37v-146zM1137 -14q0 -17 10 -27t24 -10h148q37 0 37 37v145q0 37 -37 37h-148q-14 0 -24 -10t-10 -27v-145zM1137 279q0 -17 10 -27t24 -10h148q37 0 37 37v145q0 37 -37 37h-148q-14 0 -24 -10t-10 -27v-145zM1137 571q0 -17 10 -26.5t24 -9.5h148q37 0 37 36 v146q0 37 -37 37h-148q-14 0 -24 -10t-10 -27v-146zM1427 -14q0 -37 37 -37h148q37 0 37 37v145q0 37 -37 37h-148q-37 0 -37 -37v-145zM1427 279q0 -37 37 -37h148q37 0 37 37v145q0 37 -37 37h-148q-37 0 -37 -37v-145zM1427 571q0 -36 37 -36h148q37 0 37 36v146 q0 37 -37 37h-148q-37 0 -37 -37v-146z"/>
<glyph unicode="Y" horiz-adv-x="1411" d="M0 -61v804q0 29 20.5 48.5t51.5 19.5h92v305q0 84 23.5 162.5t67 146t104 121t135.5 86.5q75 34 158 41q12 1 24 1.5t24 0.5q29 0 57.5 -2.5t56.5 -8.5q81 -17 152.5 -56t125.5 -99q73 -81 115 -181t42 -212v-305h92q31 0 51.5 -18.5t20.5 -49.5v-804q0 -26 -16.5 -39 t-55.5 -29q-11 -5 -28 -11t-43 -14l-135 -39q-42 -12 -93.5 -21.5t-107.5 -16t-114 -10t-113 -3.5h-36q-75 0 -145 7t-136 21q-81 17 -159 38t-159 49q-35 12 -53.5 27.5t-18.5 40.5zM422 811h569v305q0 66 -20.5 120.5t-65.5 100.5q-42 43 -93.5 65t-105.5 22h-2 q-56 0 -103 -22q-26 -12 -50 -28t-45 -37q-43 -43 -63.5 -99t-20.5 -122v-305zM479 127q0 -18 10.5 -32t26 -20t32.5 -4t30 15l129 129l129 -129q13 -18 32 -18h6q21 3 37 18.5t19 37.5q1 1 1 7q0 19 -16 35l-129 129l129 129q13 13 15 28q1 1 1 11q0 9 -3 17q-4 14 -15 25 t-24 15q-8 3 -15 3q-11 0 -12 -1q-13 -5 -26 -18l-129 -129l-129 129q-18 18 -38 18h-5q-16 -2 -30 -11.5t-20.5 -23.5t-4.5 -30.5t18 -32.5l129 -129l-129 -129q-19 -19 -19 -39z"/>
<glyph unicode="Z" d="M2 168v549h768v-182q0 -15 6 -28.5t16.5 -23.5t23.5 -16t28 -6h364q15 0 28.5 6t23.5 16.5t16 23.5t6 28v182h768v-549q0 -38 -14.5 -71t-39 -57.5t-58 -39t-70.5 -14.5h-1684q-37 0 -70 14.5t-58 39t-39.5 57.5t-14.5 71zM2 825v2v439q0 37 14.5 70.5t39 58t57.5 39 t71 14.5h404v182q0 48 30 79.5t78 31.5h660q22 0 41.5 -9t34.5 -24t23.5 -35.5t8.5 -42.5v-182h404q37 0 70.5 -14.5t58 -39t39 -58t14.5 -70.5v-441h-2048zM733 1448h586v147h-586v-147zM881 571v146h290v-146h-290z"/>
<glyph unicode="a" horiz-adv-x="1200" d="M0 1139q0 248 176 424t424 176t424 -176t176 -424v-18.5t-2 -24.5t-11 -50t-26 -96t-39.5 -125.5t-48.5 -140.5t-71 -175.5t-109 -238.5q-62 -136 -135 -276.5t-158 -302.5q-85 160 -157 301t-134 276q-64 138 -107.5 240t-72.5 178q-59 154 -90 262t-35 150zM424 1139 q0 -37 13.5 -69t37.5 -56t56 -37.5t69 -13.5t69 13.5t56 37.5t37.5 56t13.5 69t-13.5 69t-37.5 56t-56 37.5t-69 13.5t-69 -13.5t-56 -37.5t-37.5 -56t-13.5 -69z"/>
<glyph unicode="b" horiz-adv-x="1741" d="M0 51v768q0 37 9.5 61t24.5 40.5t33 28t35 24.5l410 307v-307l410 307v-307h307v153v256q0 21 9 39.5t23 32t32.5 21.5t37.5 8t37.5 -8t33 -21.5t23.5 -32t9 -39.5v-409h204q45 0 74 -29t29 -74v-819q0 -43 -29 -72.5t-74 -29.5h-1536q-43 0 -72.5 29.5t-29.5 72.5z"/>
<glyph unicode="c" horiz-adv-x="1536" d="M0 -102v1638q0 45 29.5 73.5t72.5 28.5h1332q45 0 73.5 -28.5t28.5 -73.5v-1638q0 -21 -8 -39.5t-22 -33t-32.5 -22.5t-39.5 -8h-512v307q0 22 -9 41t-23.5 33t-33 21.5t-37.5 7.5h-102q-19 0 -37.5 -7.5t-33 -21.5t-23.5 -33t-9 -41v-307h-512q-21 0 -39.5 8t-32.5 22.5 t-22 33t-8 39.5zM307 512h307v205h-307v-205zM307 1126h307v205h-307v-205zM922 512h307v205h-307v-205zM922 1126h307v205h-307v-205z"/>
<glyph unicode="d" horiz-adv-x="1829" d="M0 -307v1329h1829v-1329h-1829zM0 1137v452h223v-289h410v289h563v-289h408v289h225v-452h-1829zM344 1421v320h168v-320h-168zM465 154q0 -230 252 -230q92 0 172 66q40 32 60 72.5t20 91.5q0 138 -160 184q100 31 131 98q12 25 12 57v9q0 19 -4.5 40t-11.5 44 q-55 127 -219 127q-53 0 -98 -13.5t-78.5 -40t-53.5 -66t-22 -91.5h147q0 94 101 94h3q89 0 89 -108q0 -95 -162 -95h-10v-117q106 0 139 -16q47 -21 47 -94q0 -60 -26.5 -92.5t-83.5 -32.5h-6q-41 0 -63 27q-24 30 -28 86h-147zM1040 453q51 14 95 38t86 58v-608h143v759 h-131q-38 -38 -87 -67.5t-106 -50.5v-129zM1317 1421v320h168v-320h-168z"/>
<glyph unicode="e" horiz-adv-x="1901" d="M37 -82q0 115 115 115q114 0 114 -115q0 -117 -114 -117q-115 0 -115 117zM37 485v228h1829v-228h-1829zM37 946v230h1143v-230h-1143zM37 1403v229h1829v-229h-1829zM494 -78q0 21 9 41q15 31 44.5 50.5t62.5 19.5q22 0 43 -9.5t37 -25.5t25 -37t8 -43q-1 -23 -9.5 -44 t-23 -37.5t-35 -26t-45.5 -9.5q-36 0 -63.5 20.5t-42.5 51.5q-10 19 -10 49zM950 -82q0 115 115 115t115 -115q0 -117 -115 -117t-115 117z"/>
<glyph unicode="f" d="M0 -117h2048v-293h-2048v293zM0 175v293h2048v-293h-2048zM0 760v293h2048v-293h-2048zM0 1345v293h2048v-293h-2048z"/>
<glyph unicode="g" d="M136 252v596q0 15 5.5 25t14.5 19q12 344 260 592q252 252 588 252q173 0 317.5 -62.5t270.5 -189.5q127 -129 192 -276.5t68 -323.5q12 -18 12 -36v-596q0 -21 -15.5 -34.5t-36.5 -13.5h-288q-21 0 -34.5 13.5t-13.5 34.5v596q0 24 13.5 38t34.5 14h164 q-18 274 -216 472q-100 100 -214.5 150t-253.5 50q-268 0 -468 -200q-198 -198 -216 -472h156q21 0 36.5 -14t15.5 -38v-596q0 -21 -15.5 -34.5t-36.5 -13.5h-112v-14q0 -256 388 -256q16 0 33 0.5t35 1.5q12 48 60 48h256q24 0 42 -16.5t18 -43.5v-52q0 -24 -18 -42 t-42 -18h-256q-15 0 -29 8.5t-23 23.5q-11 -1 -21 -1h-21q-43 0 -88 3q-67 4 -131 18t-118.5 40t-96.5 66.5t-64 97.5q-20 52 -20 118v18h-80q-21 0 -36.5 13.5t-15.5 34.5z"/>
<glyph unicode="h" horiz-adv-x="2889" d="M0 -43v581q8 35 22 66.5t28 55.5l32 53l198 366q18 70 48.5 108t61.5 56q34 20 76 23q9 -1 22.5 -1t31.5 -1h28h55q52 2 137 2h10q65 0 101 -24q40 -26 57 -59q11 -20 17.5 -43t6.5 -49l-6 -657q0 -36 -8.5 -63t-21 -47t-28.5 -33.5t-32 -22.5q-41 -23 -90 -23h-286 q-54 0 -95 -12t-71 -31t-50.5 -43.5t-33.5 -49.5q-32 -63 -35 -135q6 -40 -5 -61t-27 -31q-13 -10 -44 -13q-37 -3 -57.5 9.5t-29.5 30.5q-5 10 -8.5 22t-3.5 26zM274 -128q0 58 22 109.5t60.5 90t89.5 60.5t110 22q58 0 110 -22t90 -60.5t60.5 -90t22.5 -109.5 q0 -59 -22.5 -110t-60.5 -89.5t-90 -60.5t-110 -22q-59 0 -110 22t-89.5 60.5t-60.5 89.5t-22 110zM932 149h1119q32 -43 50 -78t26 -60q5 -14 7.5 -27.5t3.5 -24.5h-1113q-35 25 -53.5 58t-27.5 62q-11 35 -12 70zM1025 335v1210q0 19 7.5 36t20 29.5t29.5 20t37 7.5h1677 q19 0 36 -7.5t30 -20t20 -29.5t7 -36v-1210q0 -39 -27 -66t-66 -27h-1677q-39 0 -66.5 27t-27.5 66zM2237 -128q0 57 22 107.5t59.5 88t88 59.5t107.5 22t107.5 -22t88 -59.5t59 -88t21.5 -107.5t-21.5 -107.5t-59 -88t-88 -59t-107.5 -21.5t-107.5 21.5t-88 59t-59.5 88 t-22 107.5z"/>
<glyph unicode="i" horiz-adv-x="1899" d="M0 -291q0 29 10 52v1090q0 23 5.5 42t14.5 36q13 28 46 47q19 10 48 10q10 0 21 -1.5t23 -3.5h80q0 95 24.5 180.5t69.5 158.5t107.5 132t139 100t164.5 63.5t183 22.5t185 -22.5t168.5 -63.5t144 -100t113 -132t73.5 -158.5t26 -180.5l95 2q39 -3 78 -23q15 -8 29 -21.5 t25 -33.5t18 -46.5t7 -60.5v-1037q0 -47 -19 -86q-8 -17 -19.5 -32t-28 -27t-38.5 -19t-52 -7h-1588q-27 0 -50 6t-42 15q-16 8 -30 20.5t-22 30.5q-9 21 -9 47zM414 983q0 112 42.5 204t116 157.5t172 101.5t210.5 36t210.5 -36t172 -101.5t116 -157.5t42.5 -204h-1082z M661 490q0 -41 12.5 -78t35 -68t53.5 -53.5t67 -34.5q5 -11 -1 -57q-3 -20 -8.5 -51t-15 -75.5t-23.5 -104.5t-34 -138l334 2q-18 79 -31.5 139.5t-22.5 105.5t-15 76t-9 51q-7 48 -6 55q35 13 64.5 36t50.5 53t33 66.5t12 75.5q0 51 -19.5 96t-53 78.5t-79 53t-96.5 19.5 t-96.5 -19.5t-79 -53t-53 -78.5t-19.5 -96z"/>
<glyph unicode="j" d="M0 896q0 37 2.5 73t7.5 71q19 131 70 253t131 227t187 188t238 136q67 27 133.5 43.5t132.5 24.5q31 4 61.5 6t60.5 2q37 0 73 -2.5t71 -7.5q131 -19 253 -70t227 -131t188 -187t136 -238q27 -67 43.5 -133.5t24.5 -132.5q4 -31 6 -61.5t2 -60.5q0 -37 -2.5 -73t-7.5 -71 q-19 -130 -70 -252.5t-131 -227.5t-187 -188.5t-238 -135.5q-67 -27 -133.5 -43.5t-132.5 -24.5q-31 -4 -61.5 -6t-60.5 -2q-37 0 -73 2.5t-71 7.5q-130 19 -252.5 70t-227.5 131t-188.5 187t-135.5 238q-27 67 -43.5 133.5t-24.5 132.5q-4 31 -6 61.5t-2 60.5zM280 592 q66 -159 175.5 -269t256.5 -167l116 272q-91 42 -160.5 109t-111.5 167zM284 1208l272 -116q42 91 109 160.5t167 111.5l-112 276q-159 -66 -269 -175.5t-167 -256.5zM730 895q0 -29 5.5 -56.5t16.5 -54.5q16 -43 44 -76.5t63.5 -57t77 -36t83.5 -12.5h5q29 0 56.5 5.5 t54.5 16.5q43 16 76.5 44t57 63.5t36 77t12.5 83.5v3q0 29 -5.5 57.5t-16.5 55.5q-17 43 -45 76.5t-63 57t-76 36t-84 12.5h-3q-28 0 -56 -5t-57 -17q-57 -23 -97.5 -64t-62.5 -93q-22 -50 -22 -116zM1216 428l112 -276q159 66 269 175.5t167 256.5l-272 116 q-42 -91 -109 -160.5t-167 -111.5zM1220 1364q91 -42 160.5 -109t111.5 -167l276 112q-66 159 -175.5 269t-256.5 167z"/>
<glyph unicode="k" horiz-adv-x="1431" d="M-1 800l1166 1024l266 -230l-903 -794l903 -793l-266 -231z"/>
<glyph unicode="l" horiz-adv-x="2100" d="M0 734q0 125 34 240.5t96.5 216t150 183t194 141.5t229 91t254.5 32t254 -32t228.5 -91t194 -141.5t150 -183t96.5 -216t34 -240.5q0 -151 -47.5 -282t-132.5 -243l365 -344l-290 -275l-382 360q-106 -57 -222 -89t-248 -32t-254.5 32.5t-229 91t-194 141.5t-150 183.5 t-96.5 216t-34 240.5zM350 733q0 -119 47.5 -223t130 -181.5t193 -122.5t235.5 -45q126 0 236 45t192.5 122.5t130 181.5t47.5 223q0 118 -47.5 222.5t-130 182t-192.5 122.5t-236 45q-84 0 -161 -20.5t-144.5 -57.5t-123 -89.5t-95 -116t-61 -136.5t-21.5 -152z"/>
<glyph unicode="m" d="M0 201v1437h2048v-1437h-1047l-606 -611v611h-395zM355 723h1338v162h-1338v-162zM355 1022h1338v162h-1338v-162z"/>
<glyph unicode="n" d="M164 809q0 88 33 165t90.5 134.5t134 90.5t163.5 33t163.5 -33t133.5 -90.5t90 -134.5t33 -165q0 -87 -33 -164t-90 -134.5t-133.5 -91t-163.5 -33.5t-163.5 33.5t-134 91t-90.5 134.5t-33 164zM1029 809q0 88 33 165t90 134.5t133.5 90.5t163.5 33t163.5 -33 t133.5 -90.5t90 -134.5t33 -165q0 -87 -33 -164t-90 -134.5t-133.5 -91t-163.5 -33.5t-163.5 33.5t-133.5 91t-90 134.5t-33 164z"/>
<glyph unicode="o" horiz-adv-x="2404" d="M0 0v819q0 85 31.5 159.5t86 130t127.5 87.5t156 32h200v410h1202v-410h200q83 0 156 -32t127.5 -87.5t86 -130t31.5 -159.5v-819q0 -85 -31.5 -160t-86 -130.5t-127.5 -87.5t-156 -32h-1602q-83 0 -156 32t-127.5 87.5t-86 130.5t-31.5 160zM601 409q0 -127 47 -239 t129 -195t191 -131.5t234 -48.5q83 0 160 22t143.5 62t121.5 96t94 124t60.5 146.5t21.5 163.5t-21.5 163.5t-60.5 147t-94 124.5t-121.5 96t-143.5 62t-160 22t-160 -22t-143.5 -62t-121.5 -96t-94 -124.5t-60.5 -147t-21.5 -163.5zM801 409q0 85 31.5 159.5t86 130 t127.5 88t156 32.5t156 -32.5t127.5 -88t86 -130t31.5 -159.5t-31.5 -159.5t-86 -130t-127.5 -87.5t-156 -32t-156 32t-127.5 87.5t-86 130t-31.5 159.5z"/>
<glyph unicode="p" d="M0 329v805q0 136 96 232q97 97 233 97h805q133 0 232 -97q97 -99 97 -232v-189l460 460q22 21 52 21q15 0 28 -5q45 -18 45 -68v-1243q0 -50 -45 -68q-13 -5 -28 -5q-30 0 -52 21l-460 461v-190q0 -136 -97 -233q-96 -96 -232 -96h-805q-137 0 -233 96t-96 233z"/>
<glyph unicode="q" d="M0 364q0 94 35.5 182.5t104.5 157.5l308 308q-1 -15 -1 -30q0 -20 2 -40q4 -33 7 -66q9 -33 18.5 -64t21.5 -64l-196 -200q-38 -38 -59 -87t-21 -97q0 -51 21 -98.5t59 -85.5l8 -8q38 -38 85.5 -59t98.5 -21q48 0 97 21t87 59l436 436q38 38 57 85.5t19 98.5t-19 98.5 t-57 85.5l-8 8q-6 18 -24 24q-9 3 -14 8t-14 8l160 160q9 -3 15 -10t9 -10q9 -3 14 -10t14 -10l8 -8q71 -71 105.5 -160.5t34.5 -183.5t-34.5 -183.5t-105.5 -160.5l-440 -436q-69 -69 -157.5 -104.5t-182.5 -35.5t-183.5 34.5t-160.5 105.5l-8 8q-71 71 -105.5 160.5 t-34.5 183.5zM636 1000q0 94 34.5 183.5t105.5 160.5l440 436q69 69 157.5 104.5t182.5 35.5t183.5 -34.5t160.5 -105.5l8 -8q71 -71 105.5 -160.5t34.5 -183.5t-35.5 -182.5t-104.5 -157.5l-308 -308q1 15 1 30q0 20 -2 38q-4 32 -7 68q-9 33 -18.5 64t-21.5 64l196 200 q38 38 59 87t21 97q0 51 -21 98.5t-59 85.5l-8 8q-38 38 -85.5 59t-98.5 21q-48 0 -97 -21t-87 -59l-436 -436q-38 -38 -57 -85.5t-19 -98.5t19 -98.5t57 -85.5l8 -8q6 -18 24 -24q9 -3 14 -8t14 -8l-160 -160q-9 3 -15 10t-9 10q-9 3 -14 10t-14 10l-8 8 q-71 71 -105.5 160.5t-34.5 183.5z"/>
<glyph unicode=" " horiz-adv-x="960"/>
<glyph unicode=" " horiz-adv-x="1920"/>
<glyph unicode=" " horiz-adv-x="960"/>
<glyph unicode=" " horiz-adv-x="1920"/>
<glyph unicode=" " horiz-adv-x="640"/>
<glyph unicode=" " horiz-adv-x="480"/>
<glyph unicode=" " horiz-adv-x="320"/>
<glyph unicode=" " horiz-adv-x="320"/>
<glyph unicode=" " horiz-adv-x="240"/>
<glyph unicode=" " horiz-adv-x="384"/>
<glyph unicode=" " horiz-adv-x="106"/>
<glyph unicode=" " horiz-adv-x="384"/>
<glyph unicode=" " horiz-adv-x="480"/>
<glyph unicode="◼" horiz-adv-x="500" d="M0 0z"/>
</font>
</defs>
</svg>
